<svg width="500" height="500" viewBox="0 0 500 500" fill="none" xmlns="http://www.w3.org/2000/svg">
<rect width="500" height="500" fill="#D9D9D9" fill-opacity="0.27"/>
<path d="M413.154 10C312.561 97.9242 320.073 221.532 301.12 266.507C292.539 286.924 281.766 272.532 249.995 272.532C218.224 272.532 207.477 286.924 198.87 266.507C179.93 221.532 187.428 97.9242 86.8358 10C86.8358 10 73.2425 113.57 97.2345 169.557C121.253 225.557 157.248 269.329 155.029 300.051C152.81 330.785 142.879 384.823 157.154 422.203C159.681 428.811 165.709 437.229 184.809 438.102C204.216 439.001 214.869 437.861 222.274 432.102C230.093 426.039 237.07 410.57 249.995 410.57C262.92 410.57 269.923 426.039 277.716 432.102C285.134 437.849 295.773 439.001 315.181 438.102C334.308 437.229 340.336 428.811 342.835 422.203C357.137 384.823 347.206 330.785 344.987 300.051C342.741 269.317 378.763 225.557 402.755 169.557C426.774 113.57 413.154 10 413.154 10ZM113.969 168.836C103.196 137.57 109.732 80.4178 109.732 80.4178C114.503 84.0634 134.339 107.051 149.576 139.152C167.593 177 174.918 266.697 174.918 266.697C134.125 219.494 121.08 189.469 113.955 168.836H113.969ZM219.266 402.659C217.89 402.659 216.406 402.709 214.829 402.861C190.623 405.077 168.128 407.558 162.848 365.165C225.134 355.963 232.833 383.203 232.833 405.051C232.833 405.051 227.874 402.659 219.266 402.659ZM285.161 402.861C283.583 402.709 282.086 402.659 280.723 402.659C272.142 402.659 267.183 405.051 267.183 405.051C267.183 383.203 274.869 355.963 337.141 365.165C331.888 407.558 309.367 405.077 285.161 402.861ZM386.034 168.836C378.923 189.469 365.878 219.494 325.072 266.697C325.072 266.697 332.369 177 350.387 139.152C365.651 107.051 385.486 84.0634 390.258 80.4178C390.258 80.4178 396.807 137.57 386.021 168.836H386.034Z" fill="white"/>
<path d="M263.066 459.462C254.826 455.033 250.001 461.11 250.001 461.11C250.001 461.11 245.162 455.046 236.935 459.462C228.695 463.891 226.418 468.5 215.209 469.569C215.209 469.569 220.875 474.371 224.71 478.067C228.885 482.097 235.404 490.298 250.001 490.298C264.598 490.298 271.117 482.097 275.292 478.067C279.127 474.371 284.793 469.569 284.793 469.569C273.584 468.513 271.307 463.891 263.066 459.462Z" fill="#FF0061"/>
</svg>
